<?xml version="1.0" standalone="no"?>
<!DOCTYPE svg PUBLIC "-//W3C//DTD SVG 20010904//EN"
 "http://www.w3.org/TR/2001/REC-SVG-20010904/DTD/svg10.dtd">
<svg version="1.0" xmlns="http://www.w3.org/2000/svg"
 width="2084.000000pt" height="2084.000000pt" viewBox="0 0 2084.000000 2084.000000"
 preserveAspectRatio="xMidYMid meet">
<metadata>
Created by potrace 1.11, written by Peter Selinger 2001-2013
</metadata>
<g transform="translate(0.000000,2084.000000) scale(0.100000,-0.100000)"
fill="#000000" stroke="none">
<path d="M9950 20413 c-451 -24 -806 -62 -1202 -128 -2369 -396 -4530 -1650
-6065 -3519 -1254 -1529 -2021 -3379 -2218 -5351 -30 -308 -36 -430 -42 -845
-7 -556 11 -911 73 -1405 139 -1122 477 -2227 990 -3240 172 -340 464 -845
488 -845 7 0 120 29 252 65 658 180 1398 345 2152 480 306 55 935 155 1114
176 53 7 102 15 108 19 11 7 0 136 -105 1200 -131 1320 -476 4544 -487 4556
-10 10 -1149 -53 -2618 -145 -597 -37 -1086 -67 -1088 -66 -3 3 1456 1300
2068 1839 2131 1876 4184 3550 6076 4953 636 472 945 693 957 686 7 -4 145
-104 307 -222 2200 -1601 4358 -3343 6765 -5461 463 -407 2224 -1974 2222
-1977 -1 -1 -540 45 -1197 102 -1520 132 -2747 229 -2760 218 -5 -4 -56 -471
-190 -1733 -201 -1895 -401 -3932 -389 -3945 4 -3 145 -25 315 -50 1113 -160
2181 -378 3142 -641 134 -36 244 -64 246 -63 21 28 162 264 247 412 139 242
401 771 512 1032 714 1683 951 3516 691 5345 -257 1813 -1026 3538 -2214 4965
-389 468 -862 938 -1339 1330 -1386 1139 -3063 1888 -4826 2154 -341 51 -638
81 -995 101 -164 9 -844 11 -990 3z"/>
<path d="M9910 16772 c-1454 -1094 -2792 -2172 -4349 -3502 -235 -200 -329
-286 -315 -288 10 -1 240 6 509 17 270 10 491 18 492 18 7 -8 255 -2329 413
-3862 251 -2449 401 -3981 394 -4045 -15 -157 -75 -281 -189 -395 -128 -128
-233 -172 -480 -200 -930 -106 -1819 -250 -2650 -429 -357 -77 -857 -195 -868
-206 -9 -8 114 -148 351 -398 145 -153 421 -416 612 -584 92 -80 1028 -860
1046 -871 6 -4 0 24 -13 61 -33 88 -61 218 -69 317 -22 269 107 470 346 539
154 44 1104 176 1770 245 578 61 1661 141 1897 141 l42 0 -5 108 c-3 59 -16
447 -30 862 -51 1590 -132 3634 -240 6113 -20 461 -33 841 -29 845 11 11 3733
9 3743 -3 5 -6 1 -174 -9 -400 -114 -2508 -306 -7503 -288 -7519 2 -2 144 -11
314 -20 1023 -55 2050 -159 2985 -301 162 -25 330 -54 372 -65 198 -49 317
-159 363 -337 32 -123 14 -327 -45 -502 -16 -47 -28 -86 -27 -88 4 -3 950 786
1107 925 258 227 928 910 909 926 -2 2 -107 29 -234 59 -1025 250 -2133 444
-3255 571 -275 32 -303 38 -410 88 -113 54 -230 167 -284 277 -45 89 -76 204
-76 282 0 218 770 7793 795 7817 6 6 1099 -57 1128 -64 34 -10 14 13 -96 107
-1375 1176 -2429 2041 -3597 2950 -580 451 -1530 1169 -1547 1169 -4 0 -222
-161 -483 -358z m717 -1719 c-4 -38 -10 -108 -13 -156 l-7 -88 -51 -26 c-235
-119 -417 -336 -491 -588 -33 -110 -45 -303 -25 -421 48 -302 242 -564 515
-699 211 -104 455 -127 685 -64 l77 21 119 -92 c66 -51 120 -94 122 -95 6 -5
-384 -248 -457 -284 -103 -52 -197 -85 -322 -112 -136 -31 -378 -33 -509 -6
-534 113 -932 501 -1051 1027 -26 115 -35 312 -20 433 63 501 395 917 871
1092 57 21 497 120 554 124 5 1 6 -29 3 -66z"/>
</g>
</svg>
