<svg id="Layer_1" data-name="Layer 1" xmlns="http://www.w3.org/2000/svg" viewBox="0 0 500 500"><defs><style>.cls-1{fill:#616262;}.cls-2{fill:#f1592b;}</style></defs><title>Toilethill-Favicon</title><path class="cls-1" d="M250,10C117.45,10,10,117.45,10,250A238.72,238.72,0,0,0,47.25,378.35a621.12,621.12,0,0,1,87.4-17.83c-3.94-42-8.56-85.41-14.41-138.25-13.64.61-27.38,1.34-41,2.19l-48.29,3,36.19-32.12C110.54,156.83,169.38,106,239.62,54.83l9.81-7.16,9.82,7.15C330.8,106.91,391,158.94,435.42,198.44L473,231.84l-50.08-4.34c-15-1.3-30.19-2.47-45.21-3.49-5.66,52.11-10.15,95-14,136.45a627.52,627.52,0,0,1,88.93,18A238.72,238.72,0,0,0,490,250C490,117.45,382.55,10,250,10Z"/><path class="cls-2" d="M431.33,407.19a631.54,631.54,0,0,0-87.47-15.55l-1.06-.12a15.45,15.45,0,0,1-13.7-16.85c3.31-34.14,11.5-118,17.19-170.12L348,188.76l15.86,1q5.94.37,11.92.76C340,159.62,297.43,124.41,249.45,89c-47.25,35-89.09,69.52-124.11,99.71l9.13-.36,15.48-.59,1.71,15.4c5.85,52.57,14.26,137.21,17.65,171.53a15.45,15.45,0,0,1-13.68,16.87l-1.05.12a624.43,624.43,0,0,0-86,15.39,241.62,241.62,0,0,0,28,27.44l20.82,17.3s-9-20,8.27-22.82a736.88,736.88,0,0,1,86.72-8.78c-1.88-60.33-4.46-122.82-7.43-190.19q45.14-.81,90.22,0c-3,67.36-5.56,129.86-7.43,190.19a737,737,0,0,1,86.83,8.8c17.14,2.83,8.19,22.8,8.19,22.8l20.82-17.3v0A241.64,241.64,0,0,0,431.33,407.19Zm-162-210.06a31.81,31.81,0,1,1-23-58.13l8.91-1.73-.7,7.6a22.86,22.86,0,0,0,17,42.42l6,4.66Z"/></svg>